<svg width="582" height="540" xmlns="http://www.w3.org/2000/svg">
 <!-- Created with Method Draw - http://github.com/duopixel/Method-Draw/ -->

 <g>
  <title>background</title>
  <rect fill="none" id="canvas_background" height="542" width="584" y="-1" x="-1"/>
 </g>
 <g>
  <title>Layer 1</title>
  <g id="svg_7">
   <path fill="#3a8799" stroke="null" id="svg_5" d="m567.855101,110.243047c-11.944444,-7.291666 -89.01041,-25.555554 -89.079854,-25.572915c-4.600694,-30.381942 -21.041665,-84.670132 -80.138883,-84.670132c-69.809022,0 -77.378466,42.482636 -98.628465,86.475688c-19.131943,39.635414 -138.281239,122.256935 -286.788173,109.253464c0,0 45.225691,114.861102 139.166656,159.427071c-0.069444,-50.989579 40.781247,-98.020826 99.166659,-109.913186c59.184023,-12.031249 115.902769,16.284721 134.965267,64.427078c51.770829,-43.281247 75.138883,-96.649298 85.659716,-138.142351l-0.034722,0.434028c0,0.034722 107.656242,-54.409718 95.711798,-61.718745zm-137.934017,0.034722c-6.979166,21.024304 -26.857637,33.333331 -44.322913,27.499998c-17.534721,-5.833333 -26.006942,-27.586803 -19.027776,-48.611107c6.996527,-21.024304 26.857637,-33.333331 44.392358,-27.499998c17.482638,5.833333 25.989581,27.604165 18.958332,48.611107z"/>
   <path fill="#3a8799" id="svg_6" d="m380.285671,314.826365c-23.437498,-40.086802 -75.069439,-62.274301 -128.732629,-51.371524c-51.631941,10.48611 -89.496521,48.524302 -97.552076,92.44791c20.138887,9.322916 42.517358,15.364582 67.11805,16.388888l12.656249,115.781241l-40.468747,16.215277l0,10.104166l40.468747,-8.107638l21.249998,33.402775l12.135416,-9.07986l-12.135416,-23.263887l33.385414,6.076388l4.045139,-14.131943l-38.454858,-8.107638l-20.434026,-118.680547c16.284721,-0.434028 33.506942,-3.142361 51.649302,-8.402777l22.187498,70.55555l-36.527775,23.680554l1.961805,9.913194l38.090275,-15.79861l27.326387,28.593748l10.138888,-11.284721l-16.406249,-20.48611l33.906247,-0.520833l1.180555,-14.70486l-39.27083,-0.416667l-28.489581,-74.166661c3.697916,-1.354167 7.499999,-2.8125 11.249999,-4.375c27.465276,-11.371527 50.434024,-25.104165 69.722217,-40.260414z"/>
  </g>
 </g>
</svg>